<?xml version="1.0" encoding="utf-8"?>
  <!-- Svg Vector Icons : http://www.onlinewebfonts.com/icon -->
<svg version="1.1" xmlns="http://www.w3.org/2000/svg" xmlns:xlink="http://www.w3.org/1999/xlink" x="0px" y="0px" viewBox="0 0 1000 1000" enable-background="new 0 0 1000 1000" xml:space="preserve">
<metadata> Svg Vector Icons : http://www.onlinewebfonts.com/icon </metadata>
<g><path d="M473,798h70.7v94.4H473V798L473,798z"/><path d="M790.5,912.3c0,13.9-11.3,25.2-25.2,25.2H243.7c-13.9,0-25.2-11.3-25.2-25.2l0,0c0-13.9,11.3-25.2,25.2-25.2h521.7C779.3,887.1,790.5,898.4,790.5,912.3L790.5,912.3L790.5,912.3z"/><path d="M217,290h18.4H254v273.7h-18.4H217V290L217,290z"/><path d="M340,531.4c-24.6-26.5-36.8-61.2-36.8-104.4c0-43.2,12.3-78.1,36.8-104.6c24.6-26.5,56.7-39.9,96.5-39.9c40,0,72.2,13.3,96.7,39.9c24.5,26.5,36.8,61.5,36.8,104.6c0,43.1-12.3,77.9-36.8,104.4c-24.5,26.5-56.7,39.7-96.7,39.7C396.7,571.1,364.6,557.9,340,531.4L340,531.4z M505.6,507.7c17.6-20.5,26.2-47.4,26.2-80.6c0-33.4-8.7-60.4-26.2-80.9c-17.5-20.5-40.5-30.8-69.1-30.8c-28.4,0-51.4,10.3-68.9,30.8c-17.5,20.5-26.2,47.5-26.2,80.9c0,33.3,8.7,60.1,26.2,80.6c17.5,20.5,40.5,30.7,68.9,30.7C465,538.4,488,528.2,505.6,507.7L505.6,507.7z"/><path d="M682.8,322.8h-92.5v-16.4V290h222.1v16.4v16.4h-92.5v240.9h-18.4h-18.6L682.8,322.8L682.8,322.8z"/><path d="M917.6,62.5H82.4c-40,0-72.4,32.4-72.4,72.4v590.7c0,40,32.4,72.4,72.4,72.4h366.6h468.5c40,0,72.4-32.4,72.4-72.4V134.9C990.1,94.9,957.6,62.5,917.6,62.5L917.6,62.5z M944.1,681.7c0,41.6-0.1,64.6-65.7,64.6H453.9H121.7c-60.6,0-65.7-15.3-65.7-64.6l-1.5-502.5c-1.1-43.1,18.1-65.2,65.7-64.6h756.9c55.4-3.5,67,20.8,65.7,64.6L944.1,681.7L944.1,681.7z"/></g>
</svg>
